<svg width="78" height="20" viewBox="0 0 78 20" fill="none" xmlns="http://www.w3.org/2000/svg">
<path d="M74.4637 19.9977C75.3328 19.9977 76.056 19.7149 76.6331 19.1447C77.2103 18.5768 77.5 17.8584 77.5 16.9871C77.5 16.0999 77.2171 15.3792 76.6491 14.8295C76.0811 14.2799 75.3534 14.0039 74.466 14.0039C73.5968 14.0039 72.8714 14.2799 72.2943 14.8295C71.7171 15.3792 71.4274 16.0999 71.4274 16.9871C71.4274 17.8561 71.7217 18.5768 72.3057 19.1447C72.8919 19.7149 73.6105 19.9977 74.4637 19.9977ZM62.1063 16.8024C61.52 16.8024 61.0592 16.6701 60.7216 16.4032C60.384 16.1364 60.2152 15.7829 60.2152 15.3381C60.2152 14.362 60.952 13.8739 62.4257 13.8739H64.6088V15.126C64.4126 15.678 64.0932 16.0931 63.6507 16.3781C63.2081 16.661 62.6926 16.8024 62.1063 16.8024ZM62.2934 5.0861C61.1391 5.0861 59.9893 5.23207 58.8442 5.52628C57.699 5.8205 56.7272 6.23332 55.9287 6.76474L57.6328 10.1996C58.1301 9.80956 58.7347 9.50393 59.4441 9.28042C60.1536 9.05919 60.8562 8.94743 61.5474 8.94743C63.5001 8.94743 64.5221 9.71148 64.6088 11.2373H61.7322C59.5491 11.2373 57.9339 11.6136 56.8846 12.3686C55.8375 13.1235 55.3128 14.1841 55.3128 15.5502C55.3128 16.401 55.5204 17.1605 55.9379 17.8264C56.3553 18.4924 56.9713 19.0216 57.788 19.4116C58.6046 19.8016 59.5719 19.9977 60.6897 19.9977C62.8021 19.9977 64.2233 19.2975 64.951 17.8949V19.7582H69.664V11.7436C69.664 9.49025 69.0344 7.81617 67.7729 6.72368C66.5182 5.63348 64.6887 5.0861 62.2934 5.0861ZM45.9667 15.9767C45.0793 15.9767 44.3515 15.6711 43.7835 15.0576C43.2155 14.4463 42.9326 13.5979 42.9326 12.5145C42.9326 11.4494 43.2155 10.6147 43.7835 10.0125C44.3515 9.40814 45.0793 9.10708 45.9667 9.10708C46.854 9.10708 47.5772 9.40814 48.1384 10.0125C48.6973 10.6169 48.9779 11.4494 48.9779 12.5145C48.9779 13.5979 48.695 14.4463 48.127 15.0576C47.5567 15.6711 46.8381 15.9767 45.9667 15.9767ZM48.8957 0.00227951V6.58C47.9536 5.58559 46.6236 5.08838 44.9013 5.08838C43.5873 5.08838 42.3897 5.38944 41.3061 5.99384C40.2225 6.59824 39.3671 7.46265 38.7375 8.58935C38.1056 9.71605 37.7907 11.0252 37.7907 12.5168C37.7907 14.0084 38.1056 15.3222 38.7375 16.458C39.3671 17.5938 40.2248 18.4673 41.3061 19.0809C42.3874 19.6944 43.5873 20 44.9013 20C46.7833 20 48.1931 19.4412 49.1353 18.3214V19.7582H53.9555V0L48.8957 0.00227951ZM30.3334 5.0861C29.4095 5.0861 28.5586 5.24119 27.7762 5.55137C26.9937 5.86156 26.3208 6.31087 25.7527 6.89474V5.3233H20.9325V19.756H25.9923V12.7791C25.9923 11.6433 26.2546 10.7926 26.777 10.2224C27.3017 9.65446 27.9975 9.36937 28.8689 9.36937C30.4498 9.36937 31.2391 10.3547 31.2391 12.3252V19.7537H36.2988V11.4996C36.2988 9.35112 35.7536 7.74547 34.6609 6.68035C33.5705 5.6198 32.1265 5.0861 30.3334 5.0861ZM15.9252 1.11985L10.7583 13.2626L5.6985 1.11985H0L7.96375 19.7582H13.1581L21.1469 1.11985H15.9252Z" fill="#B92C38"/>
</svg>
